<svg width="36" height="36" viewBox="0 0 36 36" fill="none" xmlns="http://www.w3.org/2000/svg">
<rect width="36" height="36" rx="6" fill="#36DA78"/>
<path d="M16 22H17C17 22.2833 17.096 22.5207 17.288 22.712C17.4793 22.904 17.7167 23 18 23C18.2833 23 18.521 22.904 18.713 22.712C18.9043 22.5207 19 22.2833 19 22H20C20.2833 22 20.521 21.904 20.713 21.712C20.9043 21.5207 21 21.2833 21 21V18C21 17.7167 20.9043 17.479 20.713 17.287C20.521 17.0957 20.2833 17 20 17H17V16H20C20.2833 16 20.521 15.904 20.713 15.712C20.9043 15.5207 21 15.2833 21 15C21 14.7167 20.9043 14.479 20.713 14.287C20.521 14.0957 20.2833 14 20 14H19C19 13.7167 18.9043 13.479 18.713 13.287C18.521 13.0957 18.2833 13 18 13C17.7167 13 17.4793 13.0957 17.288 13.287C17.096 13.479 17 13.7167 17 14H16C15.7167 14 15.4793 14.0957 15.288 14.287C15.096 14.479 15 14.7167 15 15V18C15 18.2833 15.096 18.5207 15.288 18.712C15.4793 18.904 15.7167 19 16 19H19V20H16C15.7167 20 15.4793 20.0957 15.288 20.287C15.096 20.479 15 20.7167 15 21C15 21.2833 15.096 21.5207 15.288 21.712C15.4793 21.904 15.7167 22 16 22ZM10 26C9.45 26 8.97933 25.8043 8.588 25.413C8.196 25.021 8 24.55 8 24V12C8 11.45 8.196 10.9793 8.588 10.588C8.97933 10.196 9.45 10 10 10H26C26.55 10 27.021 10.196 27.413 10.588C27.8043 10.9793 28 11.45 28 12V24C28 24.55 27.8043 25.021 27.413 25.413C27.021 25.8043 26.55 26 26 26H10ZM10 24H26V12H10V24Z" fill="#82F8B1"/>
</svg>
