<svg width="39" height="40" viewBox="0 0 39 40" fill="none" xmlns="http://www.w3.org/2000/svg">
<path d="M19.1094 0C22.7474 9.20501e-05 26.0445 1.45785 28.4502 3.82031C31.6992 4.7224 34.6105 6.84911 36.4297 10C38.2488 13.1509 38.6343 16.7352 37.791 20C38.6343 23.2648 38.2488 26.8491 36.4297 30C34.6106 33.1508 31.6991 35.2766 28.4502 36.1787C26.0445 38.5415 22.7477 39.9999 19.1094 40C15.4706 40 12.1724 38.5419 9.7666 36.1787C6.51818 35.2764 3.60697 33.1504 1.78809 30C-0.0309097 26.8493 -0.417346 23.2646 0.425781 20C-0.417353 16.7354 -0.0309038 13.1507 1.78809 10C3.60701 6.84953 6.51808 4.72261 9.7666 3.82031C12.1724 1.4574 15.4709 0 19.1094 0Z" fill="white"/>
<path d="M32.4424 13.3333C32.4424 20.6971 26.4729 26.6667 19.1091 26.6667C11.7453 26.6667 5.77573 20.6971 5.77573 13.3333C5.77573 5.96954 11.7453 0 19.1091 0C26.4729 0 32.4424 5.96954 32.4424 13.3333Z" fill="#FF7A00" fill-opacity="0.2"/>
<path d="M32.4424 26.6667C32.4424 34.0305 26.4729 40 19.1091 40C11.7453 40 5.77573 34.0305 5.77573 26.6667C5.77573 19.3029 11.7453 13.3333 19.1091 13.3333C26.4729 13.3333 32.4424 19.3029 32.4424 26.6667Z" fill="#FF7A00" fill-opacity="0.2"/>
<path d="M20.0022 5.11966C26.3795 8.80156 28.5645 16.9561 24.8826 23.3333C21.2007 29.7106 13.0461 31.8956 6.66889 28.2137C0.291658 24.5318 -1.89334 16.3772 1.78855 10C5.47045 3.62277 13.625 1.43777 20.0022 5.11966Z" fill="#FF7A00" fill-opacity="0.2"/>
<path d="M31.5492 11.7863C37.9265 15.4682 40.1115 23.6228 36.4296 30C32.7477 36.3772 24.5931 38.5622 18.2159 34.8803C11.8387 31.1984 9.65366 23.0439 13.3356 16.6667C17.0175 10.2894 25.172 8.10443 31.5492 11.7863Z" fill="#FF7A00" fill-opacity="0.2"/>
<path d="M6.66892 11.7863C13.0462 8.10442 21.2007 10.2894 24.8826 16.6667C28.5645 23.0439 26.3795 31.1984 20.0023 34.8803C13.625 38.5622 5.47048 36.3772 1.78858 30C-1.89331 23.6228 0.291689 15.4682 6.66892 11.7863Z" fill="#FF7A00" fill-opacity="0.2"/>
<path d="M18.2159 5.11965C24.5932 1.43776 32.7477 3.62276 36.4296 9.99999C40.1115 16.3772 37.9265 24.5318 31.5493 28.2137C25.172 31.8956 17.0175 29.7106 13.3356 23.3333C9.65369 16.9561 11.8387 8.80155 18.2159 5.11965Z" fill="#FF7A00" fill-opacity="0.2"/>
</svg>
