<svg width="12" height="12" viewBox="0 0 12 12" fill="none" xmlns="http://www.w3.org/2000/svg">
<mask id="mask0_201_309" style="mask-type:alpha" maskUnits="userSpaceOnUse" x="0" y="0" width="12" height="12">
<rect width="12" height="12" fill="#D9D9D9"/>
</mask>
<g mask="url(#mask0_201_309)">
<path d="M7.08749 10.8875C6.93749 10.9208 6.80632 10.8895 6.69399 10.7935C6.58132 10.6978 6.52499 10.5667 6.52499 10.4C6.52499 10.2833 6.56465 10.1772 6.64399 10.0815C6.72299 9.9855 6.82082 9.92083 6.93749 9.8875C7.14582 9.8375 7.34799 9.77283 7.54399 9.6935C7.73966 9.6145 7.92915 9.51667 8.11249 9.4C8.22082 9.33333 8.33965 9.30633 8.46899 9.319C8.59799 9.33133 8.70415 9.37917 8.78749 9.4625C8.90415 9.57917 8.95632 9.7125 8.94399 9.8625C8.93132 10.0125 8.85832 10.1292 8.72499 10.2125C8.46665 10.3792 8.20215 10.5167 7.93149 10.625C7.66049 10.7333 7.37915 10.8208 7.08749 10.8875ZM9.49999 8.75C9.41665 8.66667 9.36865 8.5625 9.35599 8.4375C9.34365 8.3125 9.37082 8.2 9.43749 8.1C9.54582 7.91667 9.64165 7.72917 9.72499 7.5375C9.80832 7.34583 9.87499 7.14167 9.92499 6.925C9.95832 6.80833 10.025 6.70833 10.125 6.625C10.225 6.54167 10.3333 6.5 10.45 6.5C10.6167 6.5 10.748 6.55833 10.844 6.675C10.9397 6.79167 10.9667 6.925 10.925 7.075C10.8583 7.375 10.7687 7.6605 10.656 7.9315C10.5437 8.20217 10.4042 8.45833 10.2375 8.7C10.1542 8.825 10.0397 8.89367 9.89399 8.906C9.74799 8.91867 9.61665 8.86667 9.49999 8.75ZM10.4375 5.5C10.3208 5.5 10.2147 5.45833 10.119 5.375C10.023 5.29167 9.95832 5.19167 9.92499 5.075C9.87499 4.85833 9.80832 4.652 9.72499 4.456C9.64165 4.26033 9.54582 4.075 9.43749 3.9C9.37082 3.8 9.34365 3.6875 9.35599 3.5625C9.36865 3.4375 9.41665 3.33333 9.49999 3.25C9.61665 3.13333 9.74799 3.07917 9.89399 3.0875C10.0397 3.09583 10.1542 3.1625 10.2375 3.2875C10.4042 3.52917 10.5458 3.7895 10.6625 4.0685C10.7792 4.34783 10.8708 4.63333 10.9375 4.925C10.9708 5.075 10.9375 5.20833 10.8375 5.325C10.7375 5.44167 10.6042 5.5 10.4375 5.5ZM4.97499 10.875C3.83332 10.6083 2.89365 10.025 2.15599 9.125C1.41865 8.225 1.04999 7.18333 1.04999 6C1.04999 4.80833 1.41665 3.75833 2.14999 2.85C2.88332 1.94167 3.82082 1.3625 4.96249 1.1125C5.11249 1.07917 5.24382 1.11033 5.35649 1.206C5.46882 1.302 5.52499 1.42917 5.52499 1.5875C5.52499 1.70417 5.48532 1.81033 5.40599 1.906C5.32699 2.002 5.22915 2.06667 5.11249 2.1C4.22082 2.31667 3.48749 2.7875 2.91249 3.5125C2.33749 4.2375 2.04999 5.06667 2.04999 6C2.04999 6.93333 2.33749 7.75633 2.91249 8.469C3.48749 9.18133 4.22082 9.65417 5.11249 9.8875C5.22915 9.92083 5.32699 9.9875 5.40599 10.0875C5.48532 10.1875 5.52499 10.2958 5.52499 10.4125C5.52499 10.5708 5.47082 10.6958 5.36249 10.7875C5.25415 10.8792 5.12499 10.9083 4.97499 10.875ZM8.14999 2.6125C7.95832 2.49583 7.76249 2.39367 7.56249 2.306C7.36249 2.21867 7.15832 2.15 6.94999 2.1C6.83332 2.06667 6.73332 2.002 6.64999 1.906C6.56665 1.81033 6.52499 1.70417 6.52499 1.5875C6.52499 1.42917 6.58132 1.302 6.69399 1.206C6.80632 1.11033 6.93749 1.07917 7.08749 1.1125C7.37915 1.17917 7.66249 1.26667 7.93749 1.375C8.21249 1.48333 8.47915 1.62083 8.73749 1.7875C8.87082 1.87083 8.94382 1.9875 8.95649 2.1375C8.96882 2.2875 8.91665 2.42083 8.79999 2.5375C8.71665 2.62083 8.61465 2.67083 8.49399 2.6875C8.37299 2.70417 8.25832 2.67917 8.14999 2.6125ZM6.03749 8.325C5.97082 8.325 5.90832 8.3145 5.84999 8.2935C5.79165 8.27283 5.73749 8.24167 5.68749 8.2C5.13749 7.69167 4.72499 7.21667 4.44999 6.775C4.17499 6.33333 4.03749 5.925 4.03749 5.55C4.03749 4.925 4.23965 4.42717 4.64399 4.0565C5.04799 3.6855 5.51249 3.5 6.03749 3.5C6.56249 3.5 7.02715 3.6855 7.43149 4.0565C7.83549 4.42717 8.03749 4.925 8.03749 5.55C8.03749 5.925 7.89999 6.33333 7.62499 6.775C7.34999 7.21667 6.93749 7.69167 6.38749 8.2C6.33749 8.24167 6.28332 8.27283 6.22499 8.2935C6.16665 8.3145 6.10415 8.325 6.03749 8.325ZM6.03749 6C6.18749 6 6.31465 5.948 6.41899 5.844C6.52299 5.73967 6.57499 5.6125 6.57499 5.4625C6.57499 5.32083 6.52299 5.19583 6.41899 5.0875C6.31465 4.97917 6.18749 4.925 6.03749 4.925C5.88749 4.925 5.76032 4.97917 5.65599 5.0875C5.55199 5.19583 5.49999 5.32083 5.49999 5.4625C5.49999 5.6125 5.55199 5.73967 5.65599 5.844C5.76032 5.948 5.88749 6 6.03749 6Z" fill="#FFAA04"/>
</g>
</svg>
